<?xml version="1.0" encoding="UTF-8" standalone="no"?>
<svg
   xmlns:dc="http://purl.org/dc/elements/1.1/"
   xmlns:cc="http://creativecommons.org/ns#"
   xmlns:rdf="http://www.w3.org/1999/02/22-rdf-syntax-ns#"
   xmlns:svg="http://www.w3.org/2000/svg"
   xmlns="http://www.w3.org/2000/svg"
   viewBox="0 0 504.59626 109.76365"
   height="109.76365"
   width="504.59625"
   xml:space="preserve"
   version="1.1"
   id="svg2"><metadata
     id="metadata8"><rdf:RDF><cc:Work
         rdf:about=""><dc:format>image/svg+xml</dc:format><dc:type
           rdf:resource="http://purl.org/dc/dcmitype/StillImage" /><dc:title></dc:title></cc:Work></rdf:RDF></metadata><defs
     id="defs6" /><g
     transform="matrix(1.25,0,0,-1.25,0,109.76362)"
     id="g10"><g
       transform="scale(0.1,0.1)"
       id="g12"><path
         id="path14"
         style="fill:#da812c;fill-opacity:0.94117647;fill-rule:evenodd;stroke:none"
         d="m 3945.57,342.859 c 5.47,-5.461 0.02,-1.898 9.6,-4.789 -5.47,5.469 -0.02,1.91 -9.6,4.789 l 0,0 z M 1598.39,467.672 c 0,-1.602 0,-3.203 0,-4.813 6.4,0 12.81,0 19.21,0 0,1.61 0,3.211 0,4.813 -6.4,0 -12.81,0 -19.21,0 l 0,0 z m 182.4,24 c 0,-1.602 0,-3.203 0,-4.801 6.41,0 12.81,0 19.21,0 0,1.598 0,3.199 0,4.801 -6.4,0 -12.8,0 -19.21,0 l 0,0 z m 1175.98,9.59 c 2.36,-2.051 6,-8.883 14.39,-4.793 0,1.601 0,3.203 0,4.793 -4.79,0 -9.59,0 -14.39,0 l 0,0 z M 1939.19,515.68 c 0,-1.61 0,-3.211 0,-4.809 6.41,0 12.8,0 19.21,0 0,1.598 0,3.199 0,4.809 -6.41,0 -12.8,0 -19.21,0 l 0,0 z m 72.01,-14.418 c 8,1.597 16,3.207 24,4.808 0,1.602 0,3.2 0,4.801 -6.4,3.199 -12.81,6.399 -19.2,9.598 -1.61,-6.399 -3.21,-12.797 -4.8,-19.207 l 0,0 z M 4036.77,342.859 c 0,-6.379 0,-12.789 0,-19.187 -24.23,4.898 -37.83,17.379 -67.2,19.187 0,-1.589 0,-3.187 0,-4.789 -1.6,0 -3.2,0 -4.8,0 5.74,-6.711 15.55,-10.601 24,-14.398 0,-1.602 0,-3.203 0,-4.801 -3.2,0 -6.41,0 -9.6,0 0,1.598 0,3.199 0,4.801 -6.41,0 -12.8,0 -19.2,0 0,1.598 0,3.199 0,4.797 -4.8,0 -9.6,0 -14.4,0 0,1.601 0,3.203 0,4.801 -14.4,3.21 -28.8,6.402 -43.2,9.589 0,1.61 0,3.211 0,4.813 -13.23,3.418 -26.8,-11.082 -28.81,-9.602 -1.6,4.789 -3.19,9.602 -4.79,14.399 -12.8,1.601 -25.61,3.211 -38.4,4.801 0,-1.59 0,-3.2 0,-4.801 1.59,0 3.19,0 4.8,0 9.07,-4.129 -9.6,-4.797 -9.6,-4.797 0,1.598 0,3.199 0,4.797 -4.8,0 -9.6,0 -14.4,0 0,4.801 0,9.601 0,14.402 -27.7,0.348 -47.19,8.289 -67.2,14.391 -12.8,0 -25.6,0 -38.4,0 0,1.597 0,3.207 0,4.808 -21.17,6.379 -34.33,1.852 -48,0 0,3.2 0,6.399 0,9.61 -23.42,0.679 -35.64,9.89 -52.8,14.39 -9.6,-1.601 -19.2,-3.199 -28.8,-4.8 0,1.601 0,3.199 0,4.8 -3.21,0 -6.4,0 -9.6,0 -1.6,3.2 -3.21,6.41 -4.8,9.602 -8.01,1.598 -16,3.187 -24,4.797 0,1.601 0,3.203 0,4.801 -19.2,1.601 -38.4,3.199 -57.6,4.8 0,1.61 0,3.2 0,4.801 -4.8,-1.601 -9.6,-3.191 -14.4,-4.801 0,1.61 0,3.2 0,4.801 -3.2,0 -6.4,0 -9.6,0 0,1.598 0,3.188 0,4.789 -9.6,1.61 -19.2,3.211 -28.8,4.809 -1.6,-3.199 -3.21,-6.41 -4.81,-9.598 -1.59,0 -3.19,0 -4.79,0 0,1.598 0,3.188 0,4.789 -3.2,-1.601 -6.4,-3.191 -9.6,-4.789 0,1.598 0,3.188 0,4.789 -5.47,5.469 -1.92,0.02 -4.8,9.61 -33.6,0 -67.2,0 -100.8,0 0,1.609 0,3.199 0,4.8 -6.4,0 -12.81,0 -19.21,0 0,1.602 0,3.2 0,4.789 -6.39,0 -12.79,0 -19.2,0 0,1.61 0,3.211 0,4.813 -14.39,-1.602 -28.79,-3.203 -43.19,-4.813 0,1.61 0,3.211 0,4.813 -4.8,1.598 -9.6,3.199 -14.4,4.797 0,-1.598 0,-3.199 0,-4.797 5.47,-5.473 1.91,-0.024 4.8,-9.602 -15.24,1.258 -18.35,4.852 -28.81,9.602 1.6,-3.203 3.21,-6.402 4.81,-9.602 -9.6,0 -19.2,0 -28.8,0 -18.34,16.571 -65.07,14.399 -100.8,14.399 -46.4,1.601 -92.8,3.211 -139.2,4.801 0,1.601 0,3.199 0,4.789 -3.2,0 -6.41,0 -9.6,0 0,1.601 0,3.211 0,4.812 -9.6,0 -19.21,0 -28.8,0 0,1.598 0,3.199 0,4.801 -5.47,5.469 -1.91,0.019 -4.8,9.59 -25.8,4.808 -39.18,0.929 -67.2,0 0,1.597 0,3.207 0,4.808 1.6,0 3.2,0 4.79,0 9.08,4.121 -9.59,4.801 -9.59,4.801 -4.83,4.32 -61.68,9.27 -72.01,9.598 0,-1.598 0,-3.199 0,-4.789 3.21,0 6.41,0 9.61,0 0,-1.61 0,-3.211 0,-4.809 4.8,0 9.6,0 14.4,0 0,-1.601 0,-3.199 0,-4.801 -1.61,0 -3.21,0 -4.8,0 0,-1.601 0,-3.211 0,-4.808 -6.4,0 -12.8,0 -19.21,0 0.57,-6.762 -1.01,-1.301 4.81,-4.793 -5.31,-4.571 0.06,-2.469 -9.6,-4.797 -6.8,12.047 -9.85,13.75 -28.8,14.398 2.27,-10.781 6.2,-9.101 -4.81,-19.199 -4.78,4.668 -32.59,16.559 -43.19,14.391 0,-1.59 0,-3.192 0,-4.793 -8,0 -16.01,0 -24,0 -6.96,1.043 -15.79,7.902 -28.8,4.793 0,0 -2.16,-6.762 -14.41,-4.793 0,1.601 0,3.203 0,4.793 -4.79,-1.59 -9.6,-3.192 -14.39,-4.793 0,1.601 0,3.203 0,4.793 -4.81,0 -9.6,0 -14.41,0 0,1.597 0,3.207 0,4.808 -9.6,0 -19.19,0 -28.79,0 0,-1.601 0,-3.211 0,-4.808 -8.08,-1.301 -8.3,4.508 -9.6,4.808 -17.6,0 -35.2,0 -52.8,0 -15.46,4.391 -31.57,9.129 -52.8,9.61 0,-3.211 0,-6.41 0,-9.61 -14.4,0 -28.81,0 -43.2,0 -6.69,1.192 1.96,4.231 -4.8,4.801 -6.36,-3.461 -31.76,-12.461 -43.2,-9.609 0,1.597 0,3.207 0,4.808 -44.8,3.2 -89.61,6.399 -134.38,9.61 0,-1.61 0,-3.211 0,-4.809 9.63,-2.75 4.14,0.578 9.58,-4.801 -9.58,0 -19.18,0 -28.78,0 -15.82,-13.82 -21.93,4.008 -38.39,0 0,-1.601 0,-3.211 0,-4.808 -12.81,-1.59 -25.61,-3.192 -38.4,-4.793 0,-3.199 0,-6.399 0,-9.598 -8,0 -16.01,0 -24.01,0 -1.59,3.199 -3.19,6.399 -4.79,9.598 -17.6,-1.59 -35.21,-3.199 -52.8,-4.797 0,-1.602 0,-3.203 0,-4.801 -9.68,-1.699 -18.05,9.039 -33.61,4.801 0,-1.602 0,-3.203 0,-4.801 -11.19,0 -22.4,0 -33.6,0 0,-1.601 0,-3.211 0,-4.812 -11.19,0 -22.39,0 -33.59,0 0,-1.59 0,-3.188 0,-4.789 -19.2,1.601 -38.4,3.199 -57.6,4.789 0,-1.59 0,-3.188 0,-4.789 -4.81,0 -9.61,0 -14.41,0 0,-1.59 0,-3.2 0,-4.801 -4.79,0 -9.6,0 -14.39,0 0,-1.598 0,-3.199 0,-4.797 -17.6,-1.602 -35.21,-3.203 -52.8,-4.813 -1.61,-3.187 -3.21,-6.39 -4.81,-9.589 -4.79,1.609 -9.59,3.199 -14.39,4.8 0,-1.601 0,-3.191 0,-4.8 -12.81,-1.598 -25.61,-3.2 -38.4,-4.801 0,3.203 0,6.41 0,9.601 -30.4,-4.8 -60.8,-9.601 -91.2,-14.41 0,1.61 0,3.211 0,4.809 -10.86,3.761 -17.25,-1.789 -24,4.801 0,3.199 0,6.402 0,9.589 -5.39,4.129 -3.34,-4.41 -4.8,-4.789 -1.17,-0.3 -14.04,7.391 -24.01,4.789 0,-1.589 0,-3.187 0,-4.789 -11.19,0 -22.4,0 -33.59,0 0,0 -0.22,-3.101 -9.6,-4.8 0,-3.2 0,-6.399 0,-9.61 -8.77,3.27 -3.79,6.809 -9.6,0 -1.6,0 -3.21,0 -4.8,0 0,3.211 0,6.41 0,9.61 -1.6,0 -3.21,0 -4.8,0 0,-1.598 0,-3.2 0,-4.801 -11.2,0 -22.4,0 -33.61,0 0,-1.598 0,-3.199 0,-4.809 -14.39,0 -28.79,0 -43.19,0 0,-1.601 0,-3.191 0,-4.789 -6.4,0 -12.8,0 -19.2,0 0,-1.601 0,-3.191 0,-4.801 -8.01,0 -16,0 -24,0 0,-1.601 0,-3.199 0,-4.8 -9.6,1.601 -19.21,3.199 -28.8,4.8 0,-1.601 0,-3.199 0,-4.8 -3.2,0 -6.4,0 -9.61,0 0,-1.598 0,-3.2 0,-4.801 -14.62,-5.84 -16.4,-1.16 -28.79,0 0,-3.199 0,-6.399 0,-9.59 -6.79,0.25 1.88,3.633 -4.8,4.793 -4.13,9.066 -4.8,-9.602 -4.8,-9.602 -11.89,2.129 -17.62,4.41 -33.6,4.809 -4.11,-5.41 -2.37,-6.949 -9.6,-9.609 -2.21,1.261 -1.07,8.359 -9.6,4.8 -1.6,-3.199 -3.21,-6.41 -4.8,-9.601 -14.4,-1.598 -28.81,-3.199 -43.21,-4.789 0,-1.61 0,-3.211 0,-4.809 -4.79,0 -9.59,0 -14.39,0 0,-1.601 0,-3.199 0,-4.801 -3.2,0 -6.4,0 -9.6,0 0,-1.601 0,-3.211 0,-4.808 -14.4,-3.192 -28.8,-6.383 -43.2,-9.59 0,-1.602 0,-3.203 0,-4.801 -11.63,-3.723 -18.26,5.219 -24,4.801 0,-1.602 0,-3.203 0,-4.801 -4.81,0 -9.61,0 -14.4,0 0,-1.601 0,-3.211 0,-4.812 -22.4,-1.59 -44.81,-3.188 -67.2,-4.789 0,-3.2 0,-6.399 0,-9.598 -11.2,-1.602 -22.41,-3.203 -33.602,-4.813 0,-1.589 0,-3.187 0,-4.789 -14.398,0 -28.796,0 -43.203,0 0,-1.59 0,-3.191 0,-4.8 -9.597,0 -19.199,0 -28.8,0 -1.594,-3.2 -3.196,-6.399 -4.797,-9.598 -3.2,0 -6.403,0 -9.602,0 0,-1.602 0,-3.203 0,-4.801 -4.801,0 -9.598,0 -14.398,0 0,-1.601 0,-3.199 0,-4.801 -20.797,-4.8 -41.606,-9.601 -62.399,-14.398 0,-4.801 0,-9.602 0,-14.402 -3.203,1.601 -6.398,3.199 -9.601,4.8 0,-3.199 0,-6.41 0,-9.601 -3.2,1.601 -6.403,3.203 -9.602,4.801 0,-1.598 0,-3.2 0,-4.801 -8,0 -16,0 -24,0 0,-1.598 0,-3.199 0,-4.797 -5.828,-0.942 -8.504,9.219 -19.199,4.797 -1.602,-3.199 -3.195,-6.41 -4.805,-9.598 -3.191,0 -6.394,0 -9.594,0 0,3.188 0,6.399 0,9.598 -27.199,-6.399 -54.406,-12.797 -81.601,-19.199 0,-1.598 0,-3.2 0,-4.801 -6.399,0 -12.797,0 -19.199,0 -1.602,-3.199 -3.203,-6.399 -4.801,-9.598 -3.203,0 -6.402,0 -9.598,0 0,-1.601 0,-3.211 0,-4.801 -8,0 -16.008,0 -24,0 0,-1.601 0,-3.199 0,-4.8 -6.402,0 -12.804,0 -19.199,0 0,0 -5.676,-7.508 -9.605,-9.598 0,4.797 0,9.598 0,14.398 -1.594,0 -3.2,0 -4.797,0 -8.055,-14.879 -14.551,-19.211 -38.403,-19.199 0,-4.801 0,-9.601 0,-14.402 -9.597,-1.598 -19.199,-3.199 -28.797,-4.797 -1.601,-3.203 -3.203,-6.402 -4.8,-9.602 -7.996,-1.601 -16.004,-3.199 -24.004,-4.8 0,-1.598 0,-3.2 0,-4.801 -4.797,0 -9.598,0 -14.399,0 0,-1.598 0,-3.199 0,-4.797 -4.797,0 -9.597,0 -14.398,0 -1.598,-3.203 -3.199,-6.402 -4.801,-9.602 -1.598,0 -3.199,0 -4.801,0 0,1.602 0,3.2 0,4.801 -7.996,-3.199 -16,-6.402 -24,-9.601 0,-1.598 0,-3.2 0,-4.801 8,-1.598 16.004,-3.199 24,-4.797 0,-3.203 0,-6.402 0,-9.602 -33.617,6.852 -72.527,18.09 -96,-9.601 5.465,-5.469 1.914,-0.008 4.801,-9.598 -9.707,-0.531 -42.551,-4.531 -48,-9.601 6.402,0 12.805,0 19.199,0 0,-3.2 0,-6.399 0,-9.598 -45.922,-0.094 -68.644,-20.8322 -105.597,-28.8009 -7.16,-26.2227 -7.438,-10.1328 -24,-19.1992 -1.598,-3.2031 -3.2,-6.4024 -4.801,-9.6016 -4.801,0 -9.602,0 -14.399,0 -4.8,-6.3984 -9.601,-12.8008 -14.406,-19.1992 C 156.797,29.2695 145.598,27.6719 134.398,26.0703 119.492,20.3008 64.0625,-7.76172 38.3945,2.07031 c 0,1.60157 0,3.19922 0,4.80078 C 0.109375,25.5 13.8086,35.6602 0,74.0703 c 11.8711,7.2578 18.3203,26.4607 28.7969,33.6017 6.3984,1.598 12.8008,3.199 19.1992,4.797 0,1.601 0,3.203 0,4.801 9.6016,3.199 19.2031,6.402 28.8008,9.601 0,1.598 0,3.199 0,4.801 4.8008,0 9.6015,0 14.3984,0 0,1.598 0,3.199 0,4.797 6.3985,1.601 12.7967,3.203 19.2027,4.801 0,1.601 0,3.199 0,4.8 8,1.602 15.997,3.2 24,4.801 0,1.598 0,3.199 0,4.801 14.395,4.797 28.801,9.598 43.2,14.398 0,1.602 0,3.2 0,4.801 6.394,1.598 12.797,3.199 19.199,4.801 0,1.598 0,3.199 0,4.797 4.801,0 9.598,0 14.398,0 0,1.601 0,3.203 0,4.801 3.2,0 6.403,0 9.602,0 0,1.601 0,3.199 0,4.8 4.801,0 9.598,0 14.402,0 0,1.602 0,3.2 0,4.801 3.196,0 6.399,0 9.598,0 0,1.598 0,3.199 0,4.801 4.797,0 9.601,0 14.402,0 0,1.598 0,3.199 0,4.797 3.196,0 6.399,0 9.594,0 0,1.601 0,3.203 0,4.801 4.801,0 9.605,0 14.406,0 0,1.601 0,3.199 0,4.8 7.996,1.602 16,3.2 23.996,4.801 0,1.598 0,3.199 0,4.801 3.2,0 6.403,0 9.602,0 0,1.598 0,3.199 0,4.797 4.797,0 9.598,0 14.398,0 0,1.601 0,3.203 0,4.801 3.203,0 6.403,0 9.602,0 0,1.601 0,3.199 0,4.8 4.801,0 9.598,0 14.398,0 0,1.59 0,3.2 0,4.801 3.203,0 6.403,0 9.606,0 0,1.598 0,3.199 0,4.801 9.594,1.598 19.199,3.199 28.797,4.797 0,1.601 0,3.203 0,4.801 3.199,0 6.402,0 9.593,0 0,1.601 0,3.21 0,4.8 4.805,0 9.606,0 14.407,0 0,1.602 0,3.2 0,4.801 4.8,0 9.597,0 14.398,0 0,1.598 0,3.199 0,4.801 4.801,0 9.602,0 14.399,0 0,1.598 0,3.199 0,4.797 4.8,0 9.601,0 14.402,0 0,1.601 0,3.203 0,4.801 3.203,0 6.398,0 9.601,0 0,1.601 0,3.199 0,4.8 14.399,3.2 28.801,6.399 43.2,9.602 0,1.598 0,3.199 0,4.797 9.601,1.601 19.199,3.203 28.8,4.801 0,1.601 0,3.199 0,4.8 3.2,0 6.403,0 9.598,0 0,1.602 0,3.2 0,4.801 9.602,1.598 19.199,3.199 28.801,4.801 0,1.598 0,3.199 0,4.797 3.195,0 6.398,0 9.598,0 0,1.601 0,3.203 0,4.801 4.8,0 9.605,0 14.402,0 0,1.609 0,3.21 0,4.8 4.797,0 9.598,0 14.402,0 0,1.602 0,3.2 0,4.789 7.992,0 16,0 24,0 0,1.61 0,3.211 0,4.813 3.196,0 6.395,0 9.598,0 0,1.598 0,3.199 0,4.797 4.801,0 9.601,0 14.398,0 0,1.601 0,3.211 0,4.801 4.801,0 9.602,0 14.403,0 0,1.601 0,3.199 0,4.789 4.797,0 9.597,0 14.398,0 0,1.601 0,3.211 0,4.812 4.801,-1.601 9.606,-3.211 14.399,-4.812 1.601,3.211 3.203,6.41 4.8,9.613 8.004,0 16,0 24,0 0,1.598 0,3.207 0,4.797 4.797,0 9.606,0 14.403,0 0,1.601 0,3.203 0,4.793 4.8,0 9.593,0 14.394,0 0,1.597 0,3.207 0,4.808 4.805,0 9.606,0 14.406,0 0,1.602 0,3.2 0,4.801 6.403,0 12.801,0 19.2,0 0,1.598 0,3.199 0,4.809 3.199,0 6.398,0 9.597,0 0,1.59 0,3.191 0,4.789 55.993,16 112.008,32 168,48 9.606,0 19.203,0 28.805,0 0,1.601 0,3.203 0,4.801 6.39,0 12.8,0 19.2,0 0,1.609 0,3.199 0,4.8 3.2,0 6.39,0 9.6,0 0,1.602 0,3.2 0,4.789 6.39,0 12.79,0 19.2,0 0,1.61 0,3.211 0,4.813 8,0 16,0 24,0 0,1.598 0,3.199 0,4.797 3.2,0 6.4,0 9.59,0 0,1.601 0,3.211 0,4.801 28.8,4.789 57.61,9.601 86.41,14.402 0,1.598 0,3.207 0,4.797 6.4,0 12.8,0 19.2,0 0,1.601 0,3.203 0,4.793 17.59,1.597 35.2,3.207 52.8,4.808 0,1.602 0,3.2 0,4.801 9.6,0 19.2,0 28.8,0 0,1.598 0,3.199 0,4.809 9.6,0 19.2,0 28.8,0 1.6,3.191 3.19,6.39 4.8,9.59 16,1.601 32,3.199 48,4.8 0,1.602 0,3.2 0,4.809 8,0 15.99,0 24,0 0,1.601 0,3.191 0,4.793 8,0 15.99,0 24,0 0,1.598 0,3.187 0,4.797 28.8,1.601 57.6,3.203 86.39,4.801 0,1.601 0,3.199 0,4.8 8.01,0 16.01,0 24.01,0 1.6,3.2 3.2,6.399 4.8,9.59 8,0 16,0 24,0 0,1.61 0,3.207 0,4.809 9.6,0 19.19,0 28.79,0 0,1.601 0,3.203 0,4.804 9.6,0 19.21,0 28.8,0 0,1.602 0,3.204 0,4.797 12.81,0 25.61,0 38.4,0 44.65,12.93 104.45,10.828 148.81,23.993 35.2,1.601 70.4,3.203 105.6,4.804 0,1.602 0,3.203 0,4.805 17.59,0 35.2,0 52.8,0 0,1.601 0,3.203 0,4.797 35.19,1.601 70.4,3.203 105.59,4.793 0,-1.59 0,-3.192 0,-4.793 28.88,-8.516 67.9,4.09 86.41,9.597 28.79,0 57.57,0 86.37,0 8,0 15.99,0 24,0 1.22,0.274 1.56,6.153 9.6,4.805 0,-1.601 0,-3.203 0,-4.805 27.2,0 54.41,0 81.59,0 1.18,-0.253 1.5,-6.66 9.6,-4.804 0,1.601 0,3.203 0,4.804 3.21,0 6.41,0 9.61,0 0,1.602 0,3.204 0,4.805 15.59,5.41 44.37,-2.305 52.8,-4.805 41.6,0 83.2,0 124.8,0 0,-1.601 0,-3.203 0,-4.804 16,0 32,0 48,0 36.79,-1.59 73.6,-3.192 110.4,-4.793 0,-1.594 0,-3.196 0,-4.797 15.99,0 32,0 48,0 4.8,0 9.6,0 14.4,0 0,-1.602 0,-3.203 0,-4.805 17.6,0 35.2,0 52.79,0 0,-1.601 0,-3.203 0,-4.804 43.21,-3.192 86.41,-6.387 129.6,-9.59 31.12,-9.09 75.03,-9.922 105.61,-19.2 11.2,0 22.4,0 33.6,0 0,-1.601 0,-3.203 0,-4.804 6.4,0 12.8,0 19.19,0 0,-1.602 0,-3.199 0,-4.809 4.81,0 9.61,0 14.41,0 0,-1.601 0,-3.191 0,-4.789 7.99,0 15.99,0 24,0 0,-1.601 0,-3.191 0,-4.801 8,0 16,0 23.99,0 0,1.61 0,3.2 0,4.801 10.03,2.277 31.98,-7.633 38.4,-9.601 30.4,-1.598 60.81,-3.2 91.2,-4.801 0,-1.61 0,-3.199 0,-4.797 6.41,0 12.81,0 19.2,0 0,-1.602 0,-3.192 0,-4.793 4.81,0 9.61,0 14.41,0 0,-1.609 0,-3.207 0,-4.809 8,0 15.99,0 24,0 0,-1.601 0,-3.199 0,-4.8 8,0 16,0 24,0 0,-1.61 0,-3.211 0,-4.801 4.8,0 9.59,0 14.4,0 0,-1.598 0,-3.199 0,-4.789 14.39,-1.61 28.8,-3.211 43.19,-4.809 0,-1.601 0,-3.199 0,-4.801 6.41,0 12.81,0 19.21,0 0,-1.601 0,-3.211 0,-4.808 14.4,-1.59 28.8,-3.192 43.2,-4.793 0,-1.59 0,-3.199 0,-4.797 6.39,0 12.8,0 19.19,0 0,-1.602 0,-3.203 0,-4.801 6.41,0 12.81,0 19.2,0 0,-1.601 0,-3.211 0,-4.812 6.41,0 12.81,0 19.21,0 0,-1.59 0,-3.188 0,-4.789 7.99,0 16,0 24,0 22.62,-7.36 54.22,-16.52 76.79,-24 8.01,0 16.01,0 24.01,0 0,-1.598 0,-3.2 0,-4.801 11.2,-1.598 22.4,-3.199 33.6,-4.809 0,-1.601 0,-3.191 0,-4.789 3.19,0 6.4,0 9.6,0 0,-1.601 0,-3.191 0,-4.801 4.8,0 9.6,0 14.4,0 0,-1.601 0,-3.199 0,-4.8 14.39,-1.598 28.8,-3.2 43.2,-4.801 0,-1.61 0,-3.199 0,-4.797 6.39,0 12.8,0 19.2,0 0,-1.602 0,-3.192 0,-4.793 11.2,-1.609 22.4,-3.207 33.6,-4.809 0,-1.601 0,-3.199 0,-4.8 4.8,0 9.6,0 14.4,0 0,-1.61 0,-3.211 0,-4.801 6.4,0 12.8,0 19.19,0 0,-1.598 0,-3.199 0,-4.789 9.6,-1.61 19.2,-3.211 28.8,-4.809 0,-1.601 0,-3.199 0,-4.801 4.81,0 9.61,0 14.41,0 0,-1.601 0,-3.211 0,-4.808 4.79,0 9.6,0 14.4,0 0,-1.59 0,-3.192 0,-4.793 4.8,0 9.59,0 14.4,0 0,-1.59 0,-3.199 0,-4.797 4.8,0 9.6,0 14.4,0 0,-1.602 0,-3.203 0,-4.801 6.4,0 12.8,0 19.2,0 0,-1.601 0,-3.211 0,-4.812 22.39,-6.379 44.8,-12.789 67.2,-19.2 l 0,0" /><path
         id="path16"
         style="fill:#ffffff;fill-opacity:1;fill-rule:nonzero;stroke:none"
         d="m 3741.94,768.125 0,-635.434 -78.96,0 0,635.434 -171.08,0 0,73.324 423.01,0 0,-73.324 -172.97,0 0,0 z m -510.56,-77.078 -121.25,-283.875 239.68,0 -118.43,283.875 0,0 z m 233.12,-558.356 -83.65,201.161 -302.7,0 -85.52,-201.161 -86.49,0 327.13,742.606 318.65,-742.606 -87.42,0 0,0 z m -840.35,61.09 c 79.9,0 157.91,37.598 214.32,94.008 l 0,-97.777 c -61.1,-44.184 -136.31,-69.551 -211.49,-69.551 -200.23,0 -369.39,162.617 -369.39,363.789 0,203.039 166.35,369.426 369.39,369.426 78.95,0 148.5,-22.559 211.49,-69.563 l 0,-97.754 c -56.41,58.282 -134.42,93.985 -216.19,93.985 -157.93,0 -285.79,-137.235 -285.79,-293.285 0,-156.028 128.79,-293.278 287.66,-293.278 l 0,0 z m -802.56,586.563 c -162.61,0 -290.46,-132.539 -290.46,-293.285 0,-159.797 129.73,-293.278 290.46,-293.278 160.75,0 290.47,133.481 290.47,293.278 0,160.746 -127.84,293.285 -290.47,293.285 l 0,0 z m 0,-659.883 c -202.1,0 -369.42,161.68 -369.42,365.668 0,203.043 167.32,367.547 369.42,367.547 202.12,0 369.41,-164.504 369.41,-367.547 0,-203.988 -167.29,-365.668 -369.41,-365.668 l 0,0 z M 1133.54,96.0313 904.176,666.613 674.809,96.0313 403.148,841.449 l 85.536,0 186.125,-531.109 229.367,567.769 229.364,-567.769 186.11,531.109 85.55,0 -271.66,-745.4177 0,0" /></g></g></svg>