<?xml version="1.0" standalone="no"?>
<!DOCTYPE svg PUBLIC "-//W3C//DTD SVG 20010904//EN"
 "http://www.w3.org/TR/2001/REC-SVG-20010904/DTD/svg10.dtd">
<svg version="1.0" xmlns="http://www.w3.org/2000/svg"
 width="780.000000pt" height="780.000000pt" viewBox="0 0 780.000000 780.000000"
 preserveAspectRatio="xMidYMid meet">
<metadata>
Created by potrace 1.11, written by Peter Selinger 2001-2013
</metadata>
<g transform="translate(0.000000,780.000000) scale(0.100000,-0.100000)"
fill="#000000" stroke="none">
<path d="M1550 4305 c-182 -445 -196 -475 -224 -485 -51 -18 -61 -13 -78 38
-9 26 -32 92 -53 147 -37 101 -60 162 -179 490 -36 99 -70 187 -74 195 -7 11
-29 15 -90 15 -77 1 -80 0 -72 -20 64 -163 350 -916 350 -920 0 -5 -321 -119
-520 -185 -95 -31 -440 -175 -531 -220 -67 -34 -79 -52 -78 -112 1 -33 8 -49
27 -66 46 -40 64 -41 197 -2 39 12 87 23 108 27 42 6 61 22 22 17 -35 -3 -21
14 26 33 22 8 44 24 50 34 5 11 17 19 26 19 25 0 153 43 153 51 0 4 14 10 30
14 17 4 28 10 25 14 -5 9 75 51 99 51 9 0 29 6 45 14 15 8 36 13 47 12 10 -2
26 2 34 9 8 7 34 18 58 24 23 7 42 16 42 21 0 6 3 9 8 9 25 -4 62 2 58 10 -7
11 20 34 32 27 6 -3 26 1 46 9 19 8 42 15 50 15 9 0 28 -37 51 -97 63 -165 71
-181 80 -158 37 94 128 312 134 317 8 9 96 29 125 29 10 0 37 9 60 19 103 47
169 68 236 75 39 4 84 10 98 14 27 7 28 5 124 -218 54 -124 98 -232 98 -238 0
-38 22 4 79 155 36 92 86 224 114 294 l49 127 46 7 c26 4 52 9 57 12 6 4 19 8
29 9 11 2 24 7 30 12 6 5 35 8 64 7 28 0 52 2 52 7 0 4 16 7 35 7 32 0 35 -2
35 -31 0 -86 67 -251 138 -339 116 -144 253 -224 454 -266 30 -6 176 -6 211 1
86 16 111 23 187 56 257 109 429 380 413 653 -3 53 -1 57 23 67 21 7 42 5 93
-12 36 -12 69 -24 72 -28 4 -3 9 -44 12 -91 6 -92 7 -101 30 -177 73 -245 312
-440 577 -470 165 -18 367 30 493 119 26 19 27 21 27 122 l0 102 -55 -52
c-101 -95 -225 -146 -359 -149 -181 -4 -335 71 -447 215 -70 91 -97 176 -103
322 -3 73 2 100 17 91 5 -3 64 -6 131 -5 67 0 136 -3 154 -8 21 -5 32 -5 32 2
0 6 10 7 27 2 16 -4 40 -8 54 -9 14 -1 30 -5 37 -8 6 -4 22 -2 37 5 21 9 28 9
34 -1 6 -9 11 -10 15 -3 7 11 18 10 76 -7 47 -15 60 -14 54 4 -4 10 0 15 14
15 12 0 24 5 27 10 8 13 101 13 145 -1 19 -6 56 -10 82 -10 28 1 52 -4 61 -13
8 -8 32 -17 53 -21 21 -4 46 -9 54 -12 8 -3 51 -7 96 -8 45 -2 91 -6 104 -10
15 -5 20 -4 16 4 -4 6 0 11 9 11 10 0 15 -5 12 -12 -11 -28 -241 -557 -263
-606 -13 -29 -24 -54 -24 -55 0 -2 38 -3 84 -4 l84 -1 57 136 c32 76 68 160
80 187 12 28 25 57 28 66 5 15 33 17 266 16 l260 0 17 -46 c9 -25 25 -64 35
-86 10 -22 40 -92 67 -155 l49 -115 85 -1 86 -1 -20 46 c-11 25 -28 64 -38 86
-10 22 -57 130 -105 240 -48 110 -90 204 -93 209 -3 5 5 7 16 4 12 -4 24 -2
27 2 3 5 -3 11 -12 13 -18 5 93 11 112 7 6 -1 23 -4 39 -6 29 -4 136 -30 166
-41 8 -3 29 -7 46 -9 17 -2 53 -11 79 -21 l49 -18 0 -255 1 -255 78 -1 c51 -1
77 2 78 10 0 6 1 112 1 234 0 204 2 226 18 242 18 18 58 17 70 -1 6 -9 111
-48 145 -54 11 -2 28 -6 37 -10 13 -5 21 0 29 19 7 15 17 22 23 18 20 -13 248
-63 255 -56 7 7 -29 34 -45 34 -7 0 -71 18 -141 41 -171 55 -245 77 -323 98
l-65 17 -1 287 c-1 257 1 287 15 288 9 0 92 1 185 2 l170 2 -1 60 c-1 33 -1
67 -2 75 -1 13 -57 15 -443 13 -244 0 -446 -2 -450 -2 -5 -1 -8 -34 -8 -75 l0
-74 185 2 c179 1 185 0 186 -19 0 -11 1 -130 1 -265 l1 -245 -24 1 c-35 1 -66
8 -249 52 -91 22 -181 43 -200 47 -119 21 -130 26 -146 64 -52 125 -238 547
-244 554 -4 4 -20 -23 -35 -60 -16 -37 -42 -97 -58 -133 -16 -36 -35 -78 -42
-95 -7 -16 -32 -74 -56 -128 l-42 -98 -41 5 c-23 3 -63 8 -91 11 -27 3 -70 8
-95 11 -25 4 -58 8 -75 9 -44 4 -144 15 -179 20 -41 6 -122 13 -226 20 -47 3
-112 8 -145 10 -71 5 -406 18 -452 18 -39 -1 -40 3 -8 47 189 256 580 276 822
41 l33 -31 0 103 0 103 -52 31 c-63 38 -156 76 -224 92 -58 14 -208 18 -279 7
-70 -10 -177 -49 -243 -88 -75 -44 -198 -168 -242 -243 l-35 -61 -157 -2 c-98
-2 -158 1 -158 7 0 16 -88 140 -128 180 -140 141 -324 215 -527 212 -304 -3
-593 -220 -665 -498 -8 -31 -17 -44 -33 -48 -30 -6 -237 -45 -243 -45 -10 0
-1 30 42 144 122 320 164 431 164 437 0 7 -167 6 -173 -1 -3 -4 -151 -418
-204 -571 l-16 -46 -133 -30 -133 -30 -15 31 c-7 17 -64 150 -126 296 -153
363 -182 430 -184 430 0 0 -89 -214 -196 -475z m2091 236 c67 -21 160 -76 214
-128 34 -32 89 -103 84 -108 -2 -1 -44 -6 -94 -10 -49 -4 -102 -8 -117 -10
-14 -2 -64 -6 -110 -10 -46 -3 -94 -8 -108 -10 -14 -2 -54 -6 -90 -10 -36 -3
-81 -8 -100 -10 -19 -2 -64 -7 -100 -10 -77 -7 -128 -13 -155 -19 -97 -18 -97
-18 -91 2 17 54 75 141 128 192 142 139 350 190 539 131z m2607 -272 c23 -53
42 -99 42 -103 0 -3 -15 -4 -32 0 -18 3 -42 7 -53 9 -11 1 -36 6 -56 10 l-36
7 40 94 c22 52 44 91 47 87 4 -5 26 -51 48 -104z m-4439 -39 c29 -69 63 -148
77 -177 13 -28 24 -56 24 -61 0 -5 -36 -17 -79 -26 -44 -10 -127 -32 -184 -50
l-105 -33 45 106 c24 58 58 140 75 181 16 41 38 93 48 115 10 22 21 51 25 64
4 12 11 19 15 15 4 -5 31 -65 59 -134z m1946 -130 c3 -6 -1 -7 -9 -4 -18 7
-21 14 -7 14 6 0 13 -4 16 -10z m166 -10 c10 -13 27 -20 57 -22 l42 -2 0 -46
c0 -373 -383 -641 -728 -510 -178 68 -314 233 -348 423 -5 31 -4 37 12 37 17
0 16 1 -2 15 -18 14 -17 14 16 11 19 -2 55 3 80 10 24 7 46 11 48 9 6 -5 -44
-25 -63 -25 -8 0 -17 -5 -21 -12 -4 -6 -3 -8 3 -5 12 7 153 18 283 21 52 2
115 9 140 16 50 15 51 15 100 26 34 7 54 8 115 4 26 -2 120 7 165 16 8 1 33 3
55 4 35 0 37 2 20 12 -30 16 -31 18 -15 28 21 14 26 12 41 -10z m1809 -16 c0
-2 -9 0 -20 6 -11 6 -20 13 -20 16 0 2 9 0 20 -6 11 -6 20 -13 20 -16z m-2263
-20 c-3 -3 -12 -4 -19 -1 -8 3 -5 6 6 6 11 1 17 -2 13 -5z m2858 -42 c34 -10
43 -18 58 -54 9 -24 17 -46 17 -49 0 -3 -92 -6 -205 -6 -113 0 -205 1 -205 3
0 2 11 28 24 58 l25 56 42 -15 c57 -20 76 -20 55 1 -9 8 -16 16 -16 17 0 7
173 -2 205 -11z m-4075 -164 c0 -7 -11 -42 -24 -78 -23 -61 -25 -63 -34 -40
-5 14 -16 41 -24 60 l-15 35 41 16 c52 21 56 22 56 7z m-1100 -247 c0 -5 -14
-14 -30 -20 -21 -7 -29 -7 -24 0 5 8 33 24 52 28 1 1 2 -3 2 -8z"/>
<path d="M7385 3800 c3 -5 8 -10 11 -10 2 0 4 5 4 10 0 6 -5 10 -11 10 -5 0
-7 -4 -4 -10z"/>
<path d="M7600 3780 c0 -3 24 -14 53 -23 51 -16 52 -16 27 2 -24 19 -80 34
-80 21z"/>
</g>
</svg>
